<?xml version="1.0" standalone="no"?>
<!DOCTYPE svg PUBLIC "-//W3C//DTD SVG 20010904//EN"
 "http://www.w3.org/TR/2001/REC-SVG-20010904/DTD/svg10.dtd">
<svg version="1.0" xmlns="http://www.w3.org/2000/svg"
 width="628.000000pt" height="1000.000000pt" viewBox="0 0 628.000000 1000.000000"
 preserveAspectRatio="xMidYMid meet">

<g transform="translate(0.000000,1000.000000) scale(0.100000,-0.100000)"
fill="#000000" stroke="none">
<path d="M4983 9654 c-257 -208 -305 -248 -488 -409 -104 -92 -284 -249 -400
-349 -115 -99 -234 -204 -265 -231 -30 -28 -145 -129 -255 -225 -284 -248
-596 -531 -691 -625 -44 -44 -107 -102 -139 -130 -33 -27 -72 -63 -87 -78 -16
-15 -28 -25 -28 -21 0 9 -195 -173 -349 -325 -69 -68 -125 -128 -124 -132 2
-5 0 -8 -5 -6 -14 4 -176 -147 -642 -602 -475 -464 -649 -633 -765 -742 -49
-47 -137 -130 -195 -185 -137 -130 -227 -214 -270 -251 -31 -28 -33 -32 -20
-48 16 -19 53 -19 580 5 118 5 476 17 795 25 319 8 673 17 786 21 l206 6 28
-24 27 -24 -212 -639 c-477 -1440 -652 -1997 -743 -2360 -25 -99 -68 -281 -97
-405 -28 -124 -124 -515 -211 -870 -205 -825 -189 -756 -176 -769 26 -26 70
-12 115 36 42 46 134 175 178 251 12 21 34 51 50 67 16 17 36 39 44 50 14 19
14 19 -4 5 -19 -15 -19 -14 -2 12 17 26 35 41 20 16 -4 -7 -3 -8 4 -4 6 4 9
13 6 20 -3 8 0 17 7 22 8 5 10 3 4 -6 -5 -8 -4 -11 3 -6 6 4 9 12 7 19 -3 7 5
23 17 37 13 14 21 21 18 15 -11 -23 28 28 104 137 104 149 327 459 527 733 88
121 178 245 199 275 22 30 64 89 95 130 49 67 124 171 222 307 18 25 86 118
151 207 65 88 185 253 267 366 81 113 164 228 185 255 20 28 72 100 115 160
43 61 113 157 155 215 109 149 437 603 492 681 26 37 44 70 40 75 -4 5 -3 6 2
1 11 -8 47 42 40 55 -3 5 -1 7 4 6 11 -3 72 75 72 91 0 5 4 11 8 13 15 5 112
147 99 144 -7 -1 -9 -1 -4 1 4 3 5 8 2 13 -3 4 3 7 13 6 10 0 18 7 18 19 3 37
4 40 13 26 6 -9 11 -10 15 -2 4 6 3 11 -3 11 -6 0 -8 6 -5 13 3 8 -3 20 -13
27 -15 12 -16 12 -5 0 17 -20 15 -29 -5 -25 -10 1 -26 -5 -37 -14 -25 -22 357
510 534 744 215 284 326 418 442 537 58 59 98 103 89 97 -9 -6 4 8 29 31 30
29 37 39 20 30 -25 -12 41 59 295 318 77 78 135 142 130 142 -6 0 -84 -16
-175 -35 -310 -66 -550 -107 -760 -130 -74 -8 -153 -18 -175 -21 -36 -6 -38
-5 -26 10 12 14 11 16 -5 17 -11 0 -14 2 -9 4 13 5 248 39 485 70 406 54 530
76 615 110 39 15 36 16 -95 11 -74 -3 -223 -10 -330 -15 -107 -6 -384 -15
-615 -22 -231 -6 -517 -14 -635 -18 -118 -4 -292 -7 -387 -7 l-172 1 -31 30
c-26 25 -33 27 -40 15 -13 -20 -12 -26 5 -60 9 -17 11 -30 6 -30 -6 0 -18 14
-26 31 -22 42 -29 31 -10 -14 19 -47 7 -47 -23 0 -24 37 -24 71 -3 112 7 12
17 18 23 15 7 -4 8 -3 4 4 -4 6 7 37 24 69 17 32 28 47 25 33 -5 -21 -4 -22 5
-7 6 9 9 26 5 36 -3 11 -1 22 4 26 7 3 8 0 5 -9 -3 -9 -3 -16 1 -16 12 0 36
30 31 39 -3 4 4 8 17 7 18 -1 21 4 19 23 -2 14 0 21 6 17 13 -8 26 30 16 45
-4 7 -3 9 2 6 10 -6 155 267 154 290 0 6 4 13 8 15 4 2 21 30 38 63 17 33 43
82 59 109 15 26 22 45 16 42 -7 -4 -9 -1 -5 8 3 9 9 14 13 12 4 -3 22 25 40
62 27 55 29 64 12 48 -11 -10 -18 -22 -16 -26 2 -4 -5 -16 -17 -26 -16 -14
-10 2 20 56 23 41 72 134 109 207 37 72 71 129 77 126 5 -4 6 -1 1 7 -9 15
345 721 357 714 4 -3 5 3 1 12 -5 13 -3 15 7 9 8 -5 11 -4 6 3 -8 13 14 63 25
56 5 -3 7 1 4 8 -2 7 33 85 79 173 165 314 267 517 264 521 -2 1 -51 -82 -108
-186 -105 -190 -166 -286 -114 -180 50 102 166 314 225 410 49 80 123 241 86
187 -6 -10 -30 -43 -52 -72 -62 -84 -298 -482 -455 -770 -78 -143 -183 -334
-233 -425 -50 -91 -117 -220 -149 -288 -78 -163 -134 -264 -291 -522 -138
-228 -154 -250 -169 -247 -5 1 -54 -72 -108 -163 -234 -392 -312 -511 -325
-498 -3 3 -15 42 -25 87 -11 45 -27 95 -36 112 -15 30 -14 33 20 102 19 40 67
131 105 202 39 72 112 218 163 325 162 342 252 490 523 860 161 219 194 266
328 470 42 63 92 133 112 155 l36 40 -17 -35 c-9 -19 -38 -74 -65 -121 -56
-102 -242 -489 -304 -635 -44 -104 -79 -214 -66 -214 3 0 25 28 48 63 50 74
406 696 488 852 79 150 183 326 266 450 71 107 78 122 57 109 -8 -4 -10 -3 -5
2 5 5 12 9 15 9 13 0 32 16 32 26 0 6 -6 7 -12 3 -9 -5 -9 -3 1 9 7 9 18 14
23 10 6 -3 9 0 6 8 -3 8 17 44 43 80 26 37 45 70 42 73 -15 15 -40 0 -150 -90z
m-388 -482 c-205 -201 -737 -706 -1040 -987 -341 -316 -1018 -962 -1405 -1340
-388 -379 -521 -504 -715 -669 -73 -63 -75 -63 -20 -11 33 32 111 102 173 158
63 55 312 296 555 536 471 466 800 783 1147 1106 952 885 1030 957 1360 1282
79 78 147 139 150 137 3 -3 -90 -99 -205 -212z m-105 45 c0 -2 -15 -16 -32
-33 l-33 -29 29 33 c28 30 36 37 36 29z m90 -90 c0 -1 -60 -61 -132 -132
l-133 -130 130 133 c120 123 135 137 135 129z m-430 -420 c0 -1 -28 -29 -62
-62 l-63 -60 60 63 c55 58 65 67 65 59z m-130 -130 c0 -2 -15 -16 -32 -33
l-33 -29 29 33 c28 30 36 37 36 29z m-450 -681 c0 -2 -8 -10 -17 -17 -16 -13
-17 -12 -4 4 13 16 21 21 21 13z m-20 -56 c-23 -27 -47 -53 -53 -57 -7 -3 0 7
16 24 42 46 32 51 -15 8 l-43 -40 39 42 c22 23 42 40 46 38 4 -3 15 4 25 15
37 40 25 18 -15 -30z m-96 -117 c-21 -27 -61 -75 -88 -108 -27 -33 -83 -112
-124 -175 -100 -154 -239 -328 -497 -620 -60 -69 -127 -146 -149 -170 l-38
-45 37 48 c21 27 72 95 114 151 42 56 126 162 186 235 103 125 201 246 228
281 7 9 34 48 61 88 26 39 52 70 56 67 5 -3 12 0 16 6 5 8 3 9 -5 4 -13 -7 31
48 162 204 73 86 105 113 41 34z m-334 4 c0 -2 -17 -19 -37 -38 l-38 -34 34
38 c33 34 41 42 41 34z m240 -80 c0 -2 -12 -14 -27 -28 l-28 -24 24 28 c23 25
31 32 31 24z m-82 -95 c-105 -129 -251 -299 -352 -411 -67 -74 -161 -182 -209
-240 -134 -160 -164 -193 -106 -116 82 108 143 179 369 430 30 33 113 129 184
213 71 83 131 152 133 152 3 0 -6 -13 -19 -28z m785 -27 c-3 -9 -8 -14 -10
-11 -3 3 -2 9 2 15 9 16 15 13 8 -4z m-1153 2 c0 -1 -39 -41 -87 -87 l-88 -85
85 88 c79 81 90 92 90 84z m1127 -92 c0 -8 -4 -12 -9 -9 -5 3 -6 10 -3 15 9
13 12 11 12 -6z m-1327 -98 c0 -1 -51 -52 -112 -112 l-113 -110 110 113 c102
104 115 117 115 109z m163 -289 c-33 -35 -89 -99 -123 -143 -90 -116 -98 -116
-12 0 43 57 181 205 191 205 3 0 -22 -28 -56 -62z m-423 38 c0 -3 -6 -11 -14
-18 -7 -7 -112 -109 -232 -227 -121 -118 -262 -256 -315 -305 -52 -50 51 54
230 231 179 177 327 322 329 323 1 0 2 -2 2 -4z m100 -389 c0 -2 -12 -14 -27
-28 l-28 -24 24 28 c23 25 31 32 31 24z m-80 -94 c-18 -21 -78 -85 -132 -143
-55 -58 -112 -118 -126 -133 -21 -22 -22 -27 -7 -21 13 5 3 -13 -29 -55 -27
-34 -55 -65 -62 -68 -8 -3 -12 -8 -9 -13 2 -4 -11 -25 -30 -47 -19 -22 -32
-43 -29 -45 2 -3 -7 -13 -21 -22 -14 -9 -25 -22 -25 -28 0 -6 10 -3 22 8 22
19 22 18 -1 -11 -13 -16 -28 -30 -34 -30 -7 -1 -11 -7 -9 -14 3 -16 -17 -43
-28 -36 -4 3 -7 -2 -6 -9 3 -37 -230 -258 -304 -288 -53 -22 -111 -37 -108
-29 2 5 46 42 98 82 52 40 124 102 159 138 86 89 304 341 294 340 -4 0 -39
-37 -78 -82 -166 -192 -339 -358 -416 -400 l-34 -18 30 22 c63 48 202 189 331
336 74 83 233 253 355 377 209 214 272 273 199 189z m1025 17 c3 -5 1 -10 -4
-10 -6 0 -11 5 -11 10 0 6 2 10 4 10 3 0 8 -4 11 -10z m-935 -24 c0 -2 -8 -10
-17 -17 -16 -13 -17 -12 -4 4 13 16 21 21 21 13z m1030 -26 c0 -6 -27 -42 -60
-81 -62 -75 -74 -106 -67 -177 l4 -42 -66 0 c-90 0 -185 43 -194 87 -7 35 0
70 20 98 13 19 14 18 8 -10 l-6 -30 18 33 c13 25 23 32 47 32 17 0 42 3 56 6
21 5 22 4 10 -6 -20 -16 -10 -12 100 35 139 59 141 62 30 38 -17 -4 -22 -2
-15 5 17 18 115 28 115 12z m2295 -26 c-22 -20 -74 -58 -115 -86 -41 -27 -74
-54 -72 -60 1 -5 -2 -7 -6 -4 -5 3 -48 -10 -96 -29 -76 -31 -96 -35 -179 -35
-103 0 -156 -12 -388 -90 -152 -50 -344 -133 -410 -177 -45 -30 -188 -200
-264 -315 -76 -114 -179 -318 -214 -425 -17 -48 -39 -142 -51 -208 -11 -66
-27 -133 -34 -150 -12 -25 -114 -147 -288 -345 -22 -25 -87 -106 -146 -180
-129 -165 -213 -262 -219 -256 -4 4 6 47 34 141 5 17 4 18 -10 6 -9 -7 -14
-18 -10 -24 4 -6 1 -7 -6 -2 -8 4 -28 -7 -54 -32 -72 -67 -79 -69 -46 -12 17
30 70 125 119 211 187 333 645 1038 843 1296 5 6 7 12 4 12 -3 0 -36 -37 -74
-81 -64 -76 -155 -159 -174 -159 -5 0 0 15 9 33 10 17 47 83 81 145 35 62 83
139 106 171 60 82 80 122 65 131 -7 4 -8 10 -3 13 17 10 172 47 200 47 22 0
25 2 13 10 -20 13 -110 3 -244 -26 -103 -23 -155 -30 -145 -19 3 2 158 43 344
90 351 89 549 145 540 153 -2 3 -24 -1 -49 -8 -24 -7 -50 -10 -57 -8 -8 3 26
14 74 26 149 38 498 141 586 174 89 33 335 106 361 107 8 0 -3 -15 -25 -35z
m-518 10 c-3 -3 -12 -4 -19 -1 -8 3 -5 6 6 6 11 1 17 -2 13 -5z m-2877 -58 c0
-2 -8 -10 -17 -17 -16 -13 -17 -12 -4 4 13 16 21 21 21 13z m3310 -53 c-18
-21 -121 -130 -230 -243 -108 -113 -232 -244 -274 -292 -43 -49 -80 -88 -83
-88 -5 0 71 98 136 174 27 33 47 64 44 69 -3 6 -2 7 4 4 5 -3 28 15 51 41 22
26 54 62 71 80 17 19 28 38 25 44 -4 6 -3 8 3 5 5 -3 45 30 89 75 68 69 181
168 193 168 1 0 -11 -17 -29 -37z m-380 13 c0 -14 -403 -136 -530 -161 -19 -3
-43 -9 -54 -12 -11 -3 -16 -1 -12 5 3 6 21 14 39 17 17 4 109 32 204 61 214
67 353 103 353 90z m-3022 -86 c-24 -32 -80 -110 -125 -172 -44 -62 -123 -180
-173 -263 -114 -185 -149 -229 -208 -259 -45 -23 -302 -99 -310 -92 -2 2 34
16 80 31 104 35 193 75 236 108 19 14 68 72 110 130 286 390 425 577 429 577
2 0 -15 -27 -39 -60z m-688 -4 c0 -2 -8 -10 -17 -17 -16 -13 -17 -12 -4 4 13
16 21 21 21 13z m3942 -18 c-7 -7 -12 -8 -12 -2 0 14 12 26 19 19 2 -3 -1 -11
-7 -17z m-212 -38 c0 -6 -11 -8 -27 -4 -40 10 -41 14 -5 14 18 0 32 -5 32 -10z
m-1223 -206 c-3 -3 -12 -4 -19 -1 -8 3 -5 6 6 6 11 1 17 -2 13 -5z m-197 -38
c-210 -41 -380 -69 -386 -64 -2 3 69 18 158 33 90 16 201 36 248 46 47 9 99
17 115 17 17 0 -44 -15 -135 -32z m-90 -46 c-41 -10 -77 -17 -79 -15 -1 2 14
8 35 14 64 16 78 19 99 19 11 0 -14 -8 -55 -18z m-2170 -106 c-245 -247 -365
-315 -716 -405 -87 -22 -165 -45 -174 -50 -12 -8 -11 -9 5 -5 38 9 140 18 134
12 -3 -3 -46 -14 -95 -25 -49 -10 -187 -42 -308 -70 -120 -28 -221 -50 -223
-47 -2 2 16 12 41 21 25 10 43 21 41 25 -3 5 11 14 31 20 20 7 95 51 167 99
73 48 159 105 192 126 33 21 123 84 200 140 77 56 150 107 162 114 12 6 111
29 220 52 109 22 243 50 298 63 55 13 104 24 110 25 5 0 -33 -42 -85 -95z
m-750 -4 c-132 -152 -657 -600 -703 -600 -18 0 17 32 177 163 133 109 360 306
535 464 20 18 38 33 39 33 2 0 -19 -27 -48 -60z m-50 47 c0 -2 -19 -21 -42
-42 l-43 -40 40 43 c36 39 45 47 45 39z m1008 -114 c-44 -83 -62 -100 -162
-150 -103 -52 -128 -52 -29 0 66 35 147 108 192 175 33 48 33 39 -1 -25z
m-1258 -116 c0 -1 -24 -25 -52 -52 l-53 -50 50 53 c46 48 55 57 55 49z m-140
-130 c0 -2 -15 -16 -32 -33 l-33 -29 29 33 c28 30 36 37 36 29z m45 -122 c-34
-28 -125 -79 -130 -73 -4 4 143 95 155 97 3 0 -8 -11 -25 -24z m2541 -39 c10
-41 -37 -173 -201 -561 -19 -44 -64 -156 -100 -250 -36 -93 -84 -213 -105
-265 -22 -52 -57 -142 -78 -200 -51 -136 -144 -362 -148 -358 -1 2 30 87 70
188 119 301 295 753 301 775 25 81 -58 -123 -380 -925 -202 -503 -391 -973
-420 -1045 -29 -71 -74 -191 -100 -265 -46 -136 -204 -646 -225 -730 -21 -83
-93 -310 -97 -306 -8 8 191 686 291 989 45 135 91 252 441 1122 450 1114 506
1250 515 1235 5 -8 9 -6 14 5 9 26 7 42 -4 25 -13 -21 -12 -6 2 25 9 19 14 22
21 13 6 -9 7 -5 4 11 -7 31 13 77 26 59 6 -9 7 -5 4 11 -7 28 12 73 26 64 6
-4 8 0 4 10 -3 10 -4 24 0 33 5 13 8 13 15 2 7 -9 8 -6 5 10 -4 15 11 62 38
125 60 143 60 143 32 161 -20 14 -36 14 -108 5 -46 -5 -104 -15 -128 -20 -24
-5 -46 -7 -49 -4 -3 3 -1 5 4 5 5 1 74 18 154 40 80 21 151 39 157 39 7 1 15
-10 19 -23z m1352 -158 c-62 -82 -253 -354 -449 -638 -70 -102 -163 -234 -205
-295 -43 -60 -78 -117 -78 -127 0 -9 -4 -16 -9 -15 -12 3 -583 -820 -817
-1178 -78 -118 -270 -385 -277 -385 -5 0 12 24 117 170 42 58 137 197 212 310
74 113 186 279 248 370 62 91 165 242 228 335 64 94 145 213 182 265 221 315
251 361 244 372 -4 6 -3 8 3 5 12 -8 56 50 48 63 -4 6 -1 9 7 8 7 -2 12 5 12
14 -1 10 3 16 10 15 6 -1 10 6 10 15 -1 10 2 16 6 13 7 -4 275 386 289 419 2
5 -2 5 -10 0 -12 -6 -12 -5 0 9 8 10 16 15 19 12 7 -7 32 15 32 27 0 6 -8 4
-17 -3 -15 -11 -15 -10 1 8 10 13 23 20 29 16 7 -4 8 1 3 13 -4 10 -4 15 0 11
4 -4 12 2 18 12 15 26 156 191 163 191 3 0 -6 -15 -19 -32z m-1997 -1515 c-12
-20 -14 -14 -5 12 4 9 9 14 11 11 3 -2 0 -13 -6 -23z m-30 -74 c-11 -24 -20
-41 -20 -37 -1 12 31 89 35 85 3 -2 -4 -24 -15 -48z m-30 -76 c-12 -20 -14
-14 -5 12 4 9 9 14 11 11 3 -2 0 -13 -6 -23z m-519 -1079 c-150 -385 -246
-708 -376 -1264 -25 -107 -53 -219 -60 -249 -8 -30 -11 -50 -7 -45 13 14 77
163 148 344 35 91 61 152 58 135 -13 -68 -80 -276 -127 -394 -28 -69 -61 -157
-75 -196 -14 -38 -38 -97 -53 -130 -15 -33 -60 -138 -100 -233 -40 -94 -75
-171 -77 -169 -1 2 15 57 37 123 100 294 188 631 340 1294 50 217 99 423 111
458 27 87 93 250 130 325 39 79 132 237 136 233 2 -2 -37 -106 -85 -232z m118
-704 c-11 -22 -23 -40 -25 -40 -3 0 4 18 15 40 11 22 23 40 25 40 3 0 -4 -18
-15 -40z m-355 -777 c-80 -159 -154 -299 -166 -313 -11 -14 -1 9 21 50 23 41
95 182 160 313 66 130 123 237 126 237 3 0 -61 -129 -141 -287z"/>
<path d="M3214 7438 l-19 -23 23 19 c21 18 27 26 19 26 -2 0 -12 -10 -23 -22z"/>
<path d="M2144 6258 c-23 -27 -24 -29 -3 -10 14 12 28 20 31 17 2 -3 5 2 5 10
0 19 2 20 -33 -17z"/>
<path d="M3300 6450 c-9 -6 -10 -10 -3 -10 6 0 15 5 18 10 8 12 4 12 -15 0z"/>
<path d="M5058 6303 c7 -3 16 -2 19 1 4 3 -2 6 -13 5 -11 0 -14 -3 -6 -6z"/>
<path d="M5018 6293 c7 -3 16 -2 19 1 4 3 -2 6 -13 5 -11 0 -14 -3 -6 -6z"/>
<path d="M3072 5205 c-17 -37 -14 -45 4 -12 9 16 14 31 11 33 -2 2 -9 -7 -15
-21z"/>
<path d="M3046 5145 c-9 -26 -7 -32 5 -12 6 10 9 21 6 23 -2 3 -7 -2 -11 -11z"/>
<path d="M2996 5025 c-9 -26 -7 -32 5 -12 6 10 9 21 6 23 -2 3 -7 -2 -11 -11z"/>
<path d="M2966 4955 c-9 -26 -7 -32 5 -12 6 10 9 21 6 23 -2 3 -7 -2 -11 -11z"/>
<path d="M2906 4815 c-3 -9 -6 -22 -5 -28 0 -7 5 -1 10 12 5 13 8 26 5 28 -2
2 -6 -3 -10 -12z"/>
<path d="M3821 7434 c-18 -30 -31 -58 -28 -61 6 -5 67 95 67 110 0 13 -5 7
-39 -49z"/>
<path d="M3606 6653 c-6 -14 -5 -15 5 -6 7 7 10 15 7 18 -3 3 -9 -2 -12 -12z"/>
</g>
</svg>
